<?xml version="1.0" encoding="UTF-8" standalone="no"?>
<!-- Created with Inkscape (http://www.inkscape.org/) -->

<svg
   version="1.1"
   id="svg1"
   width="1024"
   height="1024"
   viewBox="0 0 1024 1024"
   xmlns="http://www.w3.org/2000/svg"
   xmlns:svg="http://www.w3.org/2000/svg">
  <defs
     id="defs1" />
  <g
     id="g1">
    <path
       style="fill:#fbca45;fill-opacity:1"
       d="m 506.32098,597.43567 c -5.83673,-2.96833 -6.32141,-5.46847 -6.31724,-32.5868 0.003,-22.34585 0.16355,-24.61098 1.94649,-27.53505 4.92221,-8.0726 16.06442,-7.30969 19.68167,1.34761 1.18343,2.83236 1.40752,8.2892 1.16647,28.40478 l -0.29837,24.8989 -3.04958,3.04779 c -3.74887,3.74668 -8.72178,4.66433 -13.12944,2.42277 z m -167,-69.04896 c -4.14482,-2.04405 -6.72825,-7.40224 -5.84331,-12.11938 0.52946,-2.82226 3.73528,-6.67555 15.84305,-19.04279 C 367.936,478.21034 370.79238,476 376.74883,476 c 3.68729,0 4.94533,0.53159 7.34996,3.10576 2.32746,2.49155 2.90121,4.01173 2.90121,7.68694 v 4.58119 l -17.75,17.89076 c -9.7625,9.83991 -18.96515,18.53079 -20.45034,19.31305 -3.43221,1.80779 -5.51057,1.76591 -9.47868,-0.19099 z m 334.05061,0.0735 c -1.72062,-0.87571 -10.57018,-9.11574 -19.66569,-18.31116 -17.3867,-17.57771 -19.25871,-20.41876 -17.55939,-26.64902 1.29432,-4.74543 5.18605,-7.5 10.5962,-7.5 h 4.63118 l 17.92471,17.75 c 9.86556,9.7694 18.57442,19.25781 19.36976,21.10359 1.84619,4.28454 0.9907,8.14081 -2.56085,11.54341 -3.50303,3.35612 -8.57966,4.17852 -12.73592,2.06318 z m -184.44986,-51.012 c -46.21396,-8.36872 -85.36206,-42.69415 -99.24857,-87.02213 -4.23958,-13.5334 -5.76217,-23.80491 -5.7702,-38.92608 -0.0187,-35.22233 12.6794,-65.87346 37.49671,-90.51087 24.80741,-24.62759 55.18651,-37.14041 90.06411,-37.09643 36.07275,0.0455 66.67913,13.03751 91.76545,38.9533 C 627.2945,287.70699 639,316.71781 639,351.5 c 0,27.87073 -7.85728,52.68885 -23.60581,74.56164 -6.64552,9.22982 -21.27888,23.73483 -30.54399,30.27609 -14.39747,10.16476 -33.52292,18.02549 -51.47236,21.15561 -10.69552,1.86514 -34.03799,1.84144 -44.45611,-0.0451 z M 270.44866,361.44854 c -8.37464,-4.13311 -8.42884,-15.85741 -0.0916,-19.8137 4.88652,-2.3188 50.19419,-2.43537 54.63188,-0.14055 4.0899,2.11496 6.01106,5.31283 6.01106,10.00571 0,4.93818 -2.16439,8.25291 -6.59857,10.10563 -5.00345,2.09058 -49.66195,1.96055 -53.95277,-0.15709 z m 427.87682,0.11754 c -4.03505,-1.7872 -6.52548,-5.57393 -6.52548,-9.92206 0,-4.4747 1.61717,-7.31784 5.51382,-9.69379 2.92407,-1.78294 5.1892,-1.94306 27.53505,-1.94649 27.48341,-0.004 29.71574,0.45163 32.66691,6.67075 2.20368,4.64391 1.29305,9.17594 -2.59207,12.90035 l -3.05139,2.92516 -25.18616,0.23607 c -19.87006,0.18624 -25.85621,-0.0607 -28.36068,-1.16999 z M 352.81589,208.29057 c -14.46949,-14.39684 -18.94193,-19.44551 -19.40292,-21.90278 -0.85582,-4.56194 1.9231,-9.84485 6.26152,-11.90357 6.66654,-3.16348 8.21728,-2.17007 28.61608,18.33167 L 387,211.61974 v 4.76705 c 0,3.93552 -0.50989,5.27694 -2.92308,7.69013 C 381.66373,226.49011 380.32231,227 376.38679,227 h -4.76705 z m 286.10719,15.78635 C 636.51043,221.66428 636,220.32197 636,216.38998 v -4.76387 l 17.75,-17.89076 c 9.7625,-9.83991 19.04217,-18.57061 20.62148,-19.40155 3.92213,-2.06359 8.60631,-1.0102 12.20336,2.74432 2.33902,2.44141 2.92516,3.94599 2.92516,7.50874 0,4.45406 -0.006,4.46178 -19.05283,23.43434 L 651.39433,227 h -4.77409 c -3.94329,0 -5.28277,-0.50868 -7.69716,-2.92308 z M 505.21679,169.4393 C 500.37429,166.04747 500,163.78826 500,137.95079 c 0,-20.27905 0.26196,-24.70058 1.63484,-27.59371 2.81729,-5.93699 9.73908,-8.02142 15.44471,-4.65102 5.45184,3.22049 5.92045,5.73171 5.92045,31.72719 0,25.36684 -0.53876,28.72942 -5.11687,31.93606 -2.95201,2.06767 -9.76054,2.10529 -12.66634,0.07 z"
       id="path36"
       transform="matrix(2.0705451,0,0,2.0705451,-546.90507,-215.53011)" />
  </g>
</svg>
